<svg xmlns="http://www.w3.org/2000/svg" width="159" height="55" viewBox="0 0 159 55">
    <g fill="none" fill-rule="evenodd">
        <g>
            <g>
                <g>
                    <g>
                        <g>
                            <path fill="#D13239" d="M33.113 30.722L46.138 30.706 45.663 33.671 34.77 44.072 43.914 44.056 43.381 47.254 29.915 47.262 30.481 43.956 40.924 33.954 32.588 33.954zM18.863 25.65c-.283-.3-.691-.532-1.14-.716-.475-.183-1-.316-1.516-.408-.65-.116-1.283-.166-1.733-.183-.416-.017-.683-.017-.683-.017H3.855L.059 47.262h3.548l1.4-8.495 6.878.034s2.682.108 4.58-.9c1.9-1.007 2.408-3.298 2.408-3.298s.208-.85.383-1.882c.191-1.14.383-2.507.483-3.231l.066-.516s.05-.234.05-.6c.009-.508-.066-1.274-.466-2.007-.142-.258-.308-.492-.525-.716zm-2.731 4.048c0 .042-.317 1.882-.733 4.064-.159.833-.8 1.283-1.533 1.441-1.216.258-2.523.208-2.523.208l-5.747-.016 1.266-7.62 5.205.016s.35-.008.842 0c.558.008 1.299.033 1.907.117.524.066.94.174 1.074.341.175.217.242.5.267.75.033.366-.025.674-.025.7zM63.802 24.326L67.216 24.326 63.394 47.262 59.971 47.254zM82.024 30.722L85.297 30.714 86.454 42.357 91.493 30.697 95.532 30.706 96.723 42.398 101.753 30.714 105.151 30.714 97.939 47.245 93.908 47.245 92.742 35.669 87.654 47.245 83.689 47.262z" transform="translate(-640 -4235) translate(147.5 3966) translate(0 167) translate(394) translate(99 102.5)"/>
                            <g fill="#D13239" fill-rule="nonzero">
                                <path d="M12.775.375C11.818.067 10.16 0 8.753.017 7.395.033 6.77.1 6.263.208c0 0-2.415.35-3.79 2.049C1.1 3.956.691 7.67.691 7.67s-.816 4.106-.574 5.48c.241 1.366.666 2.64 2.215 3.231 1.549.6 2.865.567 2.865.567s2.765.216 4.847-.275c2.082-.491 3.181-1.957 3.181-1.957s.491-.633.841-1.383.458-1.274.475-1.34l.216-.892-3.539.009s-.192 2.34-2.107 2.556c-1.907.217-2.932.134-3.306.117-.367-.017-2.415.075-2.249-1.64 0-.026 0-.059.008-.109.092-1.949.309-2.457.309-2.457l11.118-.033.474-2.748c.55-3.115.159-5.488-2.69-6.421zm-.74 6.03l-7.621-.009.3-1.208s.266-.949.79-1.349c.534-.4 1.208-.474 1.841-.533.633-.058 2.324-.183 3.698.1.458.092.891.35 1.008.733.266.9-.017 2.265-.017 2.265z" transform="translate(-640 -4235) translate(147.5 3966) translate(0 167) translate(394) translate(99 102.5) translate(44.722 30.48)"/>
                                <path d="M3.607 12.067c0 .028-.013.055-.013.083-.013.146.013-.092.013-.083z" transform="translate(-640 -4235) translate(147.5 3966) translate(0 167) translate(394) translate(99 102.5) translate(44.722 30.48)"/>
                            </g>
                            <g fill="#D13239" fill-rule="nonzero">
                                <path d="M3.59 12.076c0 .027-.013.055-.013.082 0 .146.013-.091.013-.082z" transform="translate(-640 -4235) translate(147.5 3966) translate(0 167) translate(394) translate(99 102.5) translate(65.709 30.48)"/>
                                <path d="M12.767.383C11.809.075 10.152.008 8.745.025c-1.358.017-1.983.083-2.49.192 0 0-2.416.35-3.79 2.048C1.091 3.965.683 7.68.683 7.68s-.816 4.105-.575 5.48c.242 1.365.667 2.64 2.216 3.23 1.549.6 2.864.567 2.864.567s2.765.217 4.847-.275c2.082-.491 3.182-1.957 3.182-1.957s.491-.633.84-1.382c.35-.75.459-1.275.476-1.341l.216-.891-3.54.008s-.19 2.34-2.106 2.557c-1.907.216-2.932.133-3.307.125-.366-.017-2.415.066-2.248-1.64 0-.026 0-.06.008-.11.092-1.948.308-2.456.308-2.456l11.118-.033.475-2.749c.55-3.123.158-5.504-2.69-6.429zm-.774 6.021l-7.62-.008.3-1.208s.266-.949.79-1.349c.525-.4 1.208-.474 1.84-.533.634-.058 2.324-.183 3.698.1.459.092.892.35 1.008.733.267.891-.017 2.265-.017 2.265z" transform="translate(-640 -4235) translate(147.5 3966) translate(0 167) translate(394) translate(99 102.5) translate(65.709 30.48)"/>
                            </g>
                            <path fill="#D13239" d="M109.082 30.722l2.19 12.093 6.188-12.1 3.481.032-8.92 17.281s-1.615 3.132-2.614 3.923c-1 .791-1.616 1.15-2.432 1.232-.816.084-1.15.142-1.932 0l-.833-.15.516-3.09s1.383.259 2.199-.066c.824-.325 1.482-1.724 1.482-1.724l.417-.7-3.223-16.739 3.48.008z" transform="translate(-640 -4235) translate(147.5 3966) translate(0 167) translate(394) translate(99 102.5)"/>
                            <path fill="#B3B2B1" d="M122.207 32.363l3.59.008.216-1.39s.383-2.515 1.24-2.998c.276-.159.717-.3 1.225-.392.941-.166 2.132-.183 3.106-.15 1.491.05 2.057.067 3.573.242s1.133 1.64 1.133 1.64l-.3 2.19s-.133.983-.483 1.591c-.308.542-1.158.908-1.649 1.066-1.183.383-5.23 1.416-5.23 1.416l-3.181.916s-1.958.566-3.049 1.774c-1.099 1.216-1.532 2.59-1.682 3.306-.15.717-.99 5.672-.99 5.672l17.172.008.574-3.431-13.583.017.242-1.4s.158-1.44.74-1.915c.184-.15.276-.35 1.358-.733.65-.233 2.865-.824 2.865-.824l5.122-1.4s2.798-.716 3.898-2.248c1.099-1.524 1.524-4.447 1.524-4.447s.3-2.84.066-3.731c-.225-.891-1.066-1.957-2.09-2.415-1.024-.459-2.09-.725-5.18-.683-3.09.041-4.622.183-6.188.766-1.566.574-2.473 1.624-3.048 3.106-.625 1.408-.991 4.44-.991 4.44zM154.537 38.742l2.407-14.424h-4.264l-13.276 14.258-.6 3.614h11.61l-.85 5.064 3.565.008.841-5.072 3.29.009.591-3.457h-3.314zm-3.548.009l-7.504-.009 9.136-9.735-1.632 9.744zM26.392 26.217h10.935s2.448-1.982 4.189-3.256c1.74-1.275 4.905-3.282 4.905-3.282l-6.18-2.89s-5.221 3.232-7.437 4.756c-2.148 1.407-6.412 4.672-6.412 4.672zM49.894 17.639l-5.072-3.415s4.589-2.606 10.693-5.038c6.096-2.432 9.353-3.448 9.353-3.448l1.032 4.839s-5.87 1.965-9.235 3.556c-3.482 1.482-6.771 3.506-6.771 3.506zM69.648 9.519l-.883-4.955s6.263-1.666 11.993-2.732C86.496.766 94.099.258 94.099.258l-2.515 7.654s-6.687-.916-12.966-.059c-4.89.583-8.97 1.666-8.97 1.666zM95.565 8.561l4.23-8.503s9.27-.183 17.265 1.058c7.995 1.233 15.307 3.131 15.149 3.215l-20.27 10.601s-4.74-2.998-10.619-4.838c-3.331-.983-5.755-1.533-5.755-1.533zM115.57 17.24l4.455 3.38h36.619s-.075-1.182-1.05-2.864c-.608-1.05-1.715-2.166-2.873-3.323-.425-.417-2.107-1.733-3.373-2.557-3.231-2.099-5.038-2.907-8.394-4.43l-25.385 9.793z" transform="translate(-640 -4235) translate(147.5 3966) translate(0 167) translate(394) translate(99 102.5)"/>
                            <path fill="#D13239" fill-rule="nonzero" d="M28.765 30.706c-1.374 0-2.673.541-3.78 1.15l.19-1.15h-3.638L18.622 47.17h3.647l1.616-9.119c.333-1.849 1.716-4.139 4.414-4.139l1.882-.008.566-3.198h-1.982z" transform="translate(-640 -4235) translate(147.5 3966) translate(0 167) translate(394) translate(99 102.5)"/>
                        </g>
                    </g>
                </g>
            </g>
        </g>
    </g>
</svg>
